<svg xmlns="http://www.w3.org/2000/svg" xmlns:xlink="http://www.w3.org/1999/xlink" width="20" height="20" viewBox="0 0 20 20">
    <defs>
        <path id="a" d="M0 16.897h15.718V.007H0z"/>
        <path id="c" d="M.152.217h19.74v11.714H.152V.217z"/>
    </defs>
    <g fill="none" fill-rule="evenodd" opacity=".7">
        <g transform="translate(0 2.886)">
            <mask id="b" fill="#fff">
                <use xlink:href="#a"/>
            </mask>
            <path fill="#B2B8BF" d="M8.02.052a.318.318 0 0 0-.323 0L.152 4.5A.308.308 0 0 0 0 4.765v7.374c0 .108.058.209.152.265l7.545 4.449a.32.32 0 0 0 .324 0l7.697-4.539V4.765a.308.308 0 0 0-.153-.265L8.021.052z" mask="url(#b)"/>
        </g>
        <g transform="translate(0 .128)">
            <mask id="d" fill="#fff">
                <use xlink:href="#c"/>
            </mask>
            <path fill="#CED2D6" d="M12.02.261L.153 7.26c-.087.05 6.427 3.958 7.544 4.627.1.06.225.06.325 0l11.794-6.954a.153.153 0 0 0 0-.264L12.343.26a.318.318 0 0 0-.323 0" mask="url(#d)" opacity=".7"/>
        </g>
        <path fill="#8C94A0" d="M15.718 11.493V15.2l2.919-1.721a.153.153 0 0 0 0-.265l-2.919-1.721z"/>
    </g>
</svg>
