<?xml version="1.0" encoding="UTF-8" standalone="no"?>
<svg width="46px" height="37px" viewBox="0 0 46 37" version="1.1" xmlns="http://www.w3.org/2000/svg" xmlns:xlink="http://www.w3.org/1999/xlink">
    <!-- Generator: sketchtool 39.1 (31720) - http://www.bohemiancoding.com/sketch -->
    <title>120A284C-28F2-4E5D-B36B-8DE8E062FA78</title>
    <desc>Created with sketchtool.</desc>
    <defs>
        <rect id="path-1" x="3" y="0" width="38" height="30" rx="3"></rect>
        <mask id="mask-2" maskContentUnits="userSpaceOnUse" maskUnits="objectBoundingBox" x="0" y="0" width="38" height="30" fill="white">
            <use xlink:href="#path-1"></use>
        </mask>
    </defs>
    <g id="ICO-Campaign-Landing" stroke="none" stroke-width="1" fill="none" fill-rule="evenodd">
        <g transform="translate(-837.000000, -4934.000000)" id="annual_report_icn" stroke="#40474F">
            <g transform="translate(838.000000, 4934.000000)">
                <g id="Group-6">
                    <path d="M12,35.3100004 L18.5891451,29.175506 M25.7240604,29.4671004 L32,35.3100004" id="Triangle-2" stroke-width="2" stroke-linecap="round"></path>
                    <g id="Group-5">
                        <use id="Rectangle-26" mask="url(#mask-2)" stroke-width="4" xlink:href="#path-1"></use>
                        <path d="M0,1 L44,1" id="Path-125" stroke-width="2" stroke-linecap="round"></path>
                    </g>
                </g>
                <path d="M20.8999819,16 L20.8999819,16 M21,15 C21,12.2385763 18.7614237,10 16,10 C13.2385763,10 11,12.2385763 11,15 C11,17.7614237 13.2385763,20 16,20 L16,16" id="Combined-Shape" stroke-width="2" stroke-linecap="round" stroke-linejoin="round"></path>
                <path d="M21,15 C18.2385763,15 16,17.2385763 16,20 L21,20 L21,15 Z" id="Combined-Shape" stroke-width="2" stroke-linecap="round" stroke-linejoin="round" transform="translate(18.500000, 17.500000) rotate(-180.000000) translate(-18.500000, -17.500000) "></path>
                <path d="M26,11 L33,11" id="Path-125-Copy-6" stroke-width="2" stroke-linecap="round"></path>
                <path d="M26,15 L33,15" id="Path-125-Copy-6" stroke-width="2" stroke-linecap="round"></path>
                <path d="M26,19 L33,19" id="Path-125-Copy-6" stroke-width="2" stroke-linecap="round"></path>
            </g>
        </g>
    </g>
</svg>