<?xml version="1.0" encoding="UTF-8" standalone="no"?>
<svg width="42px" height="42px" viewBox="0 0 42 42" version="1.1" xmlns="http://www.w3.org/2000/svg" xmlns:xlink="http://www.w3.org/1999/xlink">
    <!-- Generator: sketchtool 39.1 (31720) - http://www.bohemiancoding.com/sketch -->
    <title>9939B2B6-4FA9-44D4-BA13-95034A25194B</title>
    <desc>Created with sketchtool.</desc>
    <defs>
        <path d="M6.15384615,8 C8.27801827,8 10,6.209139 10,4 C10,1.790861 8.27801827,0 6.15384615,0 L1.0024178,0 C0.448797737,0 0,0.453036308 0,0.997030139 L0,8 L6.15384615,8 Z" id="path-1"></path>
        <mask id="mask-2" maskContentUnits="userSpaceOnUse" maskUnits="objectBoundingBox" x="0" y="0" width="10" height="8" fill="white">
            <use xlink:href="#path-1"></use>
        </mask>
        <path d="M8.15384615,8 C10.2780183,8 12,6.209139 12,4 C12,1.790861 10.2780183,0 8.15384615,0 L0,0 L0,7.00296986 C0,7.5536144 0.438386184,8 0.99982159,8 L8.15384615,8 Z" id="path-3"></path>
        <mask id="mask-4" maskContentUnits="userSpaceOnUse" maskUnits="objectBoundingBox" x="0" y="0" width="12" height="8" fill="white">
            <use xlink:href="#path-3"></use>
        </mask>
    </defs>
    <g id="ICO-Campaign-Landing" stroke="none" stroke-width="1" fill="none" fill-rule="evenodd">
        <g transform="translate(-639.000000, -4930.000000)" id="blockchain_icn">
            <g transform="translate(640.000000, 4931.000000)">
                <path d="M20,40 C31.045695,40 40,31.045695 40,20 C40,8.954305 31.045695,0 20,0 C8.954305,0 0,8.954305 0,20 C0,31.045695 8.954305,40 20,40 Z" id="Oval" stroke="#40474F" stroke-width="2"></path>
                <g id="Group-4" transform="translate(15.000000, 13.000000)" stroke="#40474F" stroke-width="4">
                    <use id="Oval-Copy" mask="url(#mask-2)" xlink:href="#path-1"></use>
                </g>
                <g id="Group-4-Copy-2" transform="translate(15.000000, 19.000000)" stroke="#40474F" stroke-width="4">
                    <use id="Oval-Copy" mask="url(#mask-4)" xlink:href="#path-3"></use>
                </g>
                <path d="M20,14 L20,11" id="Path-125" stroke="#40474F" stroke-width="2" stroke-linecap="round"></path>
                <path d="M20,29 L20,26" id="Path-125-Copy" stroke="#40474F" stroke-width="2" stroke-linecap="round"></path>
                <path d="M20,5 C20.5522847,5 21,4.55228475 21,4 C21,3.44771525 20.5522847,3 20,3 C19.4477153,3 19,3.44771525 19,4 C19,4.55228475 19.4477153,5 20,5 Z M23.8822857,5.51111261 C24.4157518,5.65405442 24.9640887,5.33747193 25.1070305,4.80400582 C25.2499724,4.27053972 24.9333899,3.72220276 24.3999238,3.57926095 C23.8664577,3.43631914 23.3181207,3.75290163 23.1751789,4.28636773 C23.0322371,4.81983384 23.3488196,5.36817079 23.8822857,5.51111261 Z M27.5,7.00961894 C27.9782926,7.28576132 28.589883,7.12188616 28.8660254,6.64359354 C29.1421678,6.16530092 28.9782926,5.55371051 28.5,5.27756814 C28.0217074,5.00142576 27.410117,5.16530092 27.1339746,5.64359354 C26.8578322,6.12188616 27.0217074,6.73347657 27.5,7.00961894 Z M30.6066017,9.39339828 C30.997126,9.78392257 31.630291,9.78392257 32.0208153,9.39339828 C32.4113396,9.00287399 32.4113396,8.36970901 32.0208153,7.97918472 C31.630291,7.58866043 30.997126,7.58866043 30.6066017,7.97918472 C30.2160774,8.36970901 30.2160774,9.00287399 30.6066017,9.39339828 Z M32.9903811,12.5 C33.2665234,12.9782926 33.8781138,13.1421678 34.3564065,12.8660254 C34.8346991,12.589883 34.9985742,11.9782926 34.7224319,11.5 C34.4462895,11.0217074 33.8346991,10.8578322 33.3564065,11.1339746 C32.8781138,11.410117 32.7142387,12.0217074 32.9903811,12.5 Z M34.4888874,16.1177143 C34.6318292,16.6511804 35.1801662,16.9677629 35.7136323,16.8248211 C36.2470984,16.6818793 36.5636809,16.1335423 36.420739,15.6000762 C36.2777972,15.0666101 35.7294603,14.7500276 35.1959942,14.8929695 C34.6625281,15.0359113 34.3459456,15.5842482 34.4888874,16.1177143 Z M35,20 C35,20.5522847 35.4477153,21 36,21 C36.5522847,21 37,20.5522847 37,20 C37,19.4477153 36.5522847,19 36,19 C35.4477153,19 35,19.4477153 35,20 Z M34.4888874,23.8822857 C34.3459456,24.4157518 34.6625281,24.9640887 35.1959942,25.1070305 C35.7294603,25.2499724 36.2777972,24.9333899 36.420739,24.3999238 C36.5636809,23.8664577 36.2470984,23.3181207 35.7136323,23.1751789 C35.1801662,23.0322371 34.6318292,23.3488196 34.4888874,23.8822857 Z M32.9903811,27.5 C32.7142387,27.9782926 32.8781138,28.589883 33.3564065,28.8660254 C33.8346991,29.1421678 34.4462895,28.9782926 34.7224319,28.5 C34.9985742,28.0217074 34.8346991,27.410117 34.3564065,27.1339746 C33.8781138,26.8578322 33.2665234,27.0217074 32.9903811,27.5 Z M30.6066017,30.6066017 C30.2160774,30.997126 30.2160774,31.630291 30.6066017,32.0208153 C30.997126,32.4113396 31.630291,32.4113396 32.0208153,32.0208153 C32.4113396,31.630291 32.4113396,30.997126 32.0208153,30.6066017 C31.630291,30.2160774 30.997126,30.2160774 30.6066017,30.6066017 Z M27.5,32.9903811 C27.0217074,33.2665234 26.8578322,33.8781138 27.1339746,34.3564065 C27.410117,34.8346991 28.0217074,34.9985742 28.5,34.7224319 C28.9782926,34.4462895 29.1421678,33.8346991 28.8660254,33.3564065 C28.589883,32.8781138 27.9782926,32.7142387 27.5,32.9903811 Z M23.8822857,34.4888874 C23.3488196,34.6318292 23.0322371,35.1801662 23.1751789,35.7136323 C23.3181207,36.2470984 23.8664577,36.5636809 24.3999238,36.420739 C24.9333899,36.2777972 25.2499724,35.7294603 25.1070305,35.1959942 C24.9640887,34.6625281 24.4157518,34.3459456 23.8822857,34.4888874 Z M20,35 C19.4477153,35 19,35.4477153 19,36 C19,36.5522847 19.4477153,37 20,37 C20.5522847,37 21,36.5522847 21,36 C21,35.4477153 20.5522847,35 20,35 Z M16.1177143,34.4888874 C15.5842482,34.3459456 15.0359113,34.6625281 14.8929695,35.1959942 C14.7500276,35.7294603 15.0666101,36.2777972 15.6000762,36.420739 C16.1335423,36.5636809 16.6818793,36.2470984 16.8248211,35.7136323 C16.9677629,35.1801662 16.6511804,34.6318292 16.1177143,34.4888874 Z M12.5,32.9903811 C12.0217074,32.7142387 11.410117,32.8781138 11.1339746,33.3564065 C10.8578322,33.8346991 11.0217074,34.4462895 11.5,34.7224319 C11.9782926,34.9985742 12.589883,34.8346991 12.8660254,34.3564065 C13.1421678,33.8781138 12.9782926,33.2665234 12.5,32.9903811 Z M9.39339828,30.6066017 C9.00287399,30.2160774 8.36970901,30.2160774 7.97918472,30.6066017 C7.58866043,30.997126 7.58866043,31.630291 7.97918472,32.0208153 C8.36970901,32.4113396 9.00287399,32.4113396 9.39339828,32.0208153 C9.78392257,31.630291 9.78392257,30.997126 9.39339828,30.6066017 Z M7.00961894,27.5 C6.73347657,27.0217074 6.12188616,26.8578322 5.64359354,27.1339746 C5.16530092,27.410117 5.00142576,28.0217074 5.27756814,28.5 C5.55371051,28.9782926 6.16530092,29.1421678 6.64359354,28.8660254 C7.12188616,28.589883 7.28576132,27.9782926 7.00961894,27.5 Z M5.51111261,23.8822857 C5.36817079,23.3488196 4.81983384,23.0322371 4.28636773,23.1751789 C3.75290163,23.3181207 3.43631914,23.8664577 3.57926095,24.3999238 C3.72220276,24.9333899 4.27053972,25.2499724 4.80400582,25.1070305 C5.33747193,24.9640887 5.65405442,24.4157518 5.51111261,23.8822857 Z M5,20 C5,19.4477153 4.55228475,19 4,19 C3.44771525,19 3,19.4477153 3,20 C3,20.5522847 3.44771525,21 4,21 C4.55228475,21 5,20.5522847 5,20 Z M5.51111261,16.1177143 C5.65405442,15.5842482 5.33747193,15.0359113 4.80400582,14.8929695 C4.27053972,14.7500276 3.72220276,15.0666101 3.57926095,15.6000762 C3.43631914,16.1335423 3.75290163,16.6818793 4.28636773,16.8248211 C4.81983384,16.9677629 5.36817079,16.6511804 5.51111261,16.1177143 Z M7.00961894,12.5 C7.28576132,12.0217074 7.12188616,11.410117 6.64359354,11.1339746 C6.16530092,10.8578322 5.55371051,11.0217074 5.27756814,11.5 C5.00142576,11.9782926 5.16530092,12.589883 5.64359354,12.8660254 C6.12188616,13.1421678 6.73347657,12.9782926 7.00961894,12.5 Z M9.39339828,9.39339828 C9.78392257,9.00287399 9.78392257,8.36970901 9.39339828,7.97918472 C9.00287399,7.58866043 8.36970901,7.58866043 7.97918472,7.97918472 C7.58866043,8.36970901 7.58866043,9.00287399 7.97918472,9.39339828 C8.36970901,9.78392257 9.00287399,9.78392257 9.39339828,9.39339828 Z M12.5,7.00961894 C12.9782926,6.73347657 13.1421678,6.12188616 12.8660254,5.64359354 C12.589883,5.16530092 11.9782926,5.00142576 11.5,5.27756814 C11.0217074,5.55371051 10.8578322,6.16530092 11.1339746,6.64359354 C11.410117,7.12188616 12.0217074,7.28576132 12.5,7.00961894 Z M16.1177143,5.51111261 C16.6511804,5.36817079 16.9677629,4.81983384 16.8248211,4.28636773 C16.6818793,3.75290163 16.1335423,3.43631914 15.6000762,3.57926095 C15.0666101,3.72220276 14.7500276,4.27053972 14.8929695,4.80400582 C15.0359113,5.33747193 15.5842482,5.65405442 16.1177143,5.51111261 Z" id="Oval-3" fill="#40474F"></path>
            </g>
        </g>
    </g>
</svg>