<?xml version="1.0" encoding="UTF-8" standalone="no"?>
<svg width="40px" height="40px" viewBox="0 0 40 40" version="1.1" xmlns="http://www.w3.org/2000/svg" xmlns:xlink="http://www.w3.org/1999/xlink">
    <!-- Generator: sketchtool 39.1 (31720) - http://www.bohemiancoding.com/sketch -->
    <title>517E3692-5650-426C-AC65-8ACCBC84E523</title>
    <desc>Created with sketchtool.</desc>
    <defs>
        <path d="M23.2779385,38.0019107 L23.2779385,38.0019107 L18.8579102,38 L3.00894406,38 C1.34715014,38 0,36.6612917 0,35.003476 L0,2.99652399 C0,1.34158949 1.33425951,0 2.99610022,0 L29.0038998,0 C30.6586002,0 32,1.34206781 32,2.99136457 L32,16 L32,21.1308594" id="path-1"></path>
        <mask id="mask-2" maskContentUnits="userSpaceOnUse" maskUnits="objectBoundingBox" x="0" y="0" width="32" height="38.0019107" fill="white">
            <use xlink:href="#path-1"></use>
        </mask>
        <rect id="path-3" x="22" y="33" width="18" height="7" rx="3"></rect>
        <mask id="mask-4" maskContentUnits="userSpaceOnUse" maskUnits="objectBoundingBox" x="0" y="0" width="18" height="7" fill="white">
            <use xlink:href="#path-3"></use>
        </mask>
    </defs>
    <g id="ICO-Campaign-Landing" stroke="none" stroke-width="1" fill="none" fill-rule="evenodd">
        <g transform="translate(-244.000000, -4931.000000)" id="company_register_icn" stroke="#40474F">
            <g transform="translate(244.000000, 4931.000000)">
                <g id="Group-2">
                    <use id="Rectangle-26-Copy" mask="url(#mask-2)" stroke-width="4" xlink:href="#path-1"></use>
                    <path d="M8,9 L24,9" id="Path-125" stroke-width="2" stroke-linecap="round"></path>
                    <path d="M8,15 L24,15" id="Path-125-Copy-3" stroke-width="2" stroke-linecap="round"></path>
                    <path d="M8,21 L21,21" id="Path-125-Copy-4" stroke-width="2" stroke-linecap="round"></path>
                    <path d="M8,27 L18,27" id="Path-125-Copy-5" stroke-width="2" stroke-linecap="round"></path>
                    <path d="M33.0232011,28.7092021 L35.9215671,34.022873 M26.0657345,34.0461535 L28.9704823,28.7207824" id="Triangle" stroke-width="2" fill="#FFFFFF"></path>
                    <ellipse id="Oval-2" stroke-width="2" stroke-linecap="round" cx="31" cy="25" rx="4" ry="4"></ellipse>
                    <use id="Rectangle-26-Copy" mask="url(#mask-4)" stroke-width="4" xlink:href="#path-3"></use>
                </g>
            </g>
        </g>
    </g>
</svg>